# xmcd CD database file generated by Grip 3.2.0
# 
# Track frame offsets:
#       150
#       10275
#       32261
#       50937
#       72492
#       95085
#       130518
#       150442
#       167500
#       178809
#       217740
#       245647
#       265559
#       298129
#       316060
#       334238
# 
# Disc length: 4741 seconds
# 
# Revision: 2
# Processed by: cddbd v1.5.1PL2 Copyright (c) Steve Scherf et al.
# Submitted via: Grip 3.2.0
# 
DISCID=de128310
DTITLE=Paul Lamb and The King Snakes - Harmonica Man - The Paul Lamb Anthology 
DTITLE=1986 - 2002 Disc One
DYEAR=1900
DGENRE=Blues
TTITLE0=Whoopin´ (A Tribute To Sonny Terry)
TTITLE1=Sugar Mama
TTITLE2=Firing Line
TTITLE3=Madison Blues
TTITLE4=My Woman Has A Black Cat Bone
TTITLE5=Bloody Murder
TTITLE6=Hey Woman
TTITLE7=Evening Sun
TTITLE8=Snakeskin Jump
TTITLE9=Once Too Often
TTITLE10=Texas Boogie
TTITLE11=Why Do You Treat Me So
TTITLE12=Don´t Lose Your Cool
TTITLE13=The Girl For Me
TTITLE14=Just A Dream
TTITLE15=Whoop And Holler
EXTD=ID3G: 0
EXTT0=
EXTT1=
EXTT2=
EXTT3=
EXTT4=
EXTT5=
EXTT6=
EXTT7=
EXTT8=
EXTT9=
EXTT10=
EXTT11=
EXTT12=
EXTT13=
EXTT14=
EXTT15=
PLAYORDER=
